<?xml version="1.0" encoding="utf-8" standalone="no"?>
<!DOCTYPE svg PUBLIC "-//W3C//DTD SVG 1.1//EN"
  "http://www.w3.org/Graphics/SVG/1.1/DTD/svg11.dtd">
<svg xmlns:xlink="http://www.w3.org/1999/xlink" width="720pt" height="576pt" viewBox="0 0 720 576" xmlns="http://www.w3.org/2000/svg" version="1.1">
 <metadata>
  <rdf:RDF xmlns:dc="http://purl.org/dc/elements/1.1/" xmlns:cc="http://creativecommons.org/ns#" xmlns:rdf="http://www.w3.org/1999/02/22-rdf-syntax-ns#">
   <cc:Work>
    <dc:type rdf:resource="http://purl.org/dc/dcmitype/StillImage"/>
    <dc:date>2024-08-02T23:04:28.823884</dc:date>
    <dc:format>image/svg+xml</dc:format>
    <dc:creator>
     <cc:Agent>
      <dc:title>Matplotlib v3.8.4, https://matplotlib.org/</dc:title>
     </cc:Agent>
    </dc:creator>
   </cc:Work>
  </rdf:RDF>
 </metadata>
 <defs>
  <style type="text/css">*{stroke-linejoin: round; stroke-linecap: butt}</style>
 </defs>
 <g id="figure_1">
  <g id="patch_1">
   <path d="M 0 576 
L 720 576 
L 720 0 
L 0 0 
L 0 576 
z
" style="fill: none"/>
  </g>
  <g id="axes_1">
   <g id="patch_2">
    <path d="M 81.74 251.44 
L 709.2 251.44 
L 709.2 25.44 
L 81.74 25.44 
L 81.74 251.44 
z
" style="fill: none"/>
   </g>
   <g id="matplotlib.axis_1">
    <g id="xtick_1">
     <g id="line2d_1">
      <defs>
       <path id="m75b3b72454" d="M 0 0 
L 0 3.5 
" style="stroke: #000000; stroke-width: 0.8"/>
      </defs>
      <g>
       <use xlink:href="#m75b3b72454" x="110.260909" y="251.44" style="stroke: #000000; stroke-width: 0.8"/>
      </g>
     </g>
     <g id="text_1">
      <!-- 0 -->
      <g transform="translate(107.079659 266.038437) scale(0.1 -0.1)">
       <defs>
        <path id="DejaVuSans-30" d="M 2034 4250 
Q 1547 4250 1301 3770 
Q 1056 3291 1056 2328 
Q 1056 1369 1301 889 
Q 1547 409 2034 409 
Q 2525 409 2770 889 
Q 3016 1369 3016 2328 
Q 3016 3291 2770 3770 
Q 2525 4250 2034 4250 
z
M 2034 4750 
Q 2819 4750 3233 4129 
Q 3647 3509 3647 2328 
Q 3647 1150 3233 529 
Q 2819 -91 2034 -91 
Q 1250 -91 836 529 
Q 422 1150 422 2328 
Q 422 3509 836 4129 
Q 1250 4750 2034 4750 
z
" transform="scale(0.015625)"/>
       </defs>
       <use xlink:href="#DejaVuSans-30"/>
      </g>
     </g>
    </g>
    <g id="xtick_2">
     <g id="line2d_2">
      <g>
       <use xlink:href="#m75b3b72454" x="191.749221" y="251.44" style="stroke: #000000; stroke-width: 0.8"/>
      </g>
     </g>
     <g id="text_2">
      <!-- 2 -->
      <g transform="translate(188.567971 266.038437) scale(0.1 -0.1)">
       <defs>
        <path id="DejaVuSans-32" d="M 1228 531 
L 3431 531 
L 3431 0 
L 469 0 
L 469 531 
Q 828 903 1448 1529 
Q 2069 2156 2228 2338 
Q 2531 2678 2651 2914 
Q 2772 3150 2772 3378 
Q 2772 3750 2511 3984 
Q 2250 4219 1831 4219 
Q 1534 4219 1204 4116 
Q 875 4013 500 3803 
L 500 4441 
Q 881 4594 1212 4672 
Q 1544 4750 1819 4750 
Q 2544 4750 2975 4387 
Q 3406 4025 3406 3419 
Q 3406 3131 3298 2873 
Q 3191 2616 2906 2266 
Q 2828 2175 2409 1742 
Q 1991 1309 1228 531 
z
" transform="scale(0.015625)"/>
       </defs>
       <use xlink:href="#DejaVuSans-32"/>
      </g>
     </g>
    </g>
    <g id="xtick_3">
     <g id="line2d_3">
      <g>
       <use xlink:href="#m75b3b72454" x="273.237532" y="251.44" style="stroke: #000000; stroke-width: 0.8"/>
      </g>
     </g>
     <g id="text_3">
      <!-- 4 -->
      <g transform="translate(270.056282 266.038437) scale(0.1 -0.1)">
       <defs>
        <path id="DejaVuSans-34" d="M 2419 4116 
L 825 1625 
L 2419 1625 
L 2419 4116 
z
M 2253 4666 
L 3047 4666 
L 3047 1625 
L 3713 1625 
L 3713 1100 
L 3047 1100 
L 3047 0 
L 2419 0 
L 2419 1100 
L 313 1100 
L 313 1709 
L 2253 4666 
z
" transform="scale(0.015625)"/>
       </defs>
       <use xlink:href="#DejaVuSans-34"/>
      </g>
     </g>
    </g>
    <g id="xtick_4">
     <g id="line2d_4">
      <g>
       <use xlink:href="#m75b3b72454" x="354.725844" y="251.44" style="stroke: #000000; stroke-width: 0.8"/>
      </g>
     </g>
     <g id="text_4">
      <!-- 6 -->
      <g transform="translate(351.544594 266.038437) scale(0.1 -0.1)">
       <defs>
        <path id="DejaVuSans-36" d="M 2113 2584 
Q 1688 2584 1439 2293 
Q 1191 2003 1191 1497 
Q 1191 994 1439 701 
Q 1688 409 2113 409 
Q 2538 409 2786 701 
Q 3034 994 3034 1497 
Q 3034 2003 2786 2293 
Q 2538 2584 2113 2584 
z
M 3366 4563 
L 3366 3988 
Q 3128 4100 2886 4159 
Q 2644 4219 2406 4219 
Q 1781 4219 1451 3797 
Q 1122 3375 1075 2522 
Q 1259 2794 1537 2939 
Q 1816 3084 2150 3084 
Q 2853 3084 3261 2657 
Q 3669 2231 3669 1497 
Q 3669 778 3244 343 
Q 2819 -91 2113 -91 
Q 1303 -91 875 529 
Q 447 1150 447 2328 
Q 447 3434 972 4092 
Q 1497 4750 2381 4750 
Q 2619 4750 2861 4703 
Q 3103 4656 3366 4563 
z
" transform="scale(0.015625)"/>
       </defs>
       <use xlink:href="#DejaVuSans-36"/>
      </g>
     </g>
    </g>
    <g id="xtick_5">
     <g id="line2d_5">
      <g>
       <use xlink:href="#m75b3b72454" x="436.214156" y="251.44" style="stroke: #000000; stroke-width: 0.8"/>
      </g>
     </g>
     <g id="text_5">
      <!-- 8 -->
      <g transform="translate(433.032906 266.038437) scale(0.1 -0.1)">
       <defs>
        <path id="DejaVuSans-38" d="M 2034 2216 
Q 1584 2216 1326 1975 
Q 1069 1734 1069 1313 
Q 1069 891 1326 650 
Q 1584 409 2034 409 
Q 2484 409 2743 651 
Q 3003 894 3003 1313 
Q 3003 1734 2745 1975 
Q 2488 2216 2034 2216 
z
M 1403 2484 
Q 997 2584 770 2862 
Q 544 3141 544 3541 
Q 544 4100 942 4425 
Q 1341 4750 2034 4750 
Q 2731 4750 3128 4425 
Q 3525 4100 3525 3541 
Q 3525 3141 3298 2862 
Q 3072 2584 2669 2484 
Q 3125 2378 3379 2068 
Q 3634 1759 3634 1313 
Q 3634 634 3220 271 
Q 2806 -91 2034 -91 
Q 1263 -91 848 271 
Q 434 634 434 1313 
Q 434 1759 690 2068 
Q 947 2378 1403 2484 
z
M 1172 3481 
Q 1172 3119 1398 2916 
Q 1625 2713 2034 2713 
Q 2441 2713 2670 2916 
Q 2900 3119 2900 3481 
Q 2900 3844 2670 4047 
Q 2441 4250 2034 4250 
Q 1625 4250 1398 4047 
Q 1172 3844 1172 3481 
z
" transform="scale(0.015625)"/>
       </defs>
       <use xlink:href="#DejaVuSans-38"/>
      </g>
     </g>
    </g>
    <g id="xtick_6">
     <g id="line2d_6">
      <g>
       <use xlink:href="#m75b3b72454" x="517.702468" y="251.44" style="stroke: #000000; stroke-width: 0.8"/>
      </g>
     </g>
     <g id="text_6">
      <!-- 10 -->
      <g transform="translate(511.339968 266.038437) scale(0.1 -0.1)">
       <defs>
        <path id="DejaVuSans-31" d="M 794 531 
L 1825 531 
L 1825 4091 
L 703 3866 
L 703 4441 
L 1819 4666 
L 2450 4666 
L 2450 531 
L 3481 531 
L 3481 0 
L 794 0 
L 794 531 
z
" transform="scale(0.015625)"/>
       </defs>
       <use xlink:href="#DejaVuSans-31"/>
       <use xlink:href="#DejaVuSans-30" x="63.623047"/>
      </g>
     </g>
    </g>
    <g id="xtick_7">
     <g id="line2d_7">
      <g>
       <use xlink:href="#m75b3b72454" x="599.190779" y="251.44" style="stroke: #000000; stroke-width: 0.8"/>
      </g>
     </g>
     <g id="text_7">
      <!-- 12 -->
      <g transform="translate(592.828279 266.038437) scale(0.1 -0.1)">
       <use xlink:href="#DejaVuSans-31"/>
       <use xlink:href="#DejaVuSans-32" x="63.623047"/>
      </g>
     </g>
    </g>
    <g id="xtick_8">
     <g id="line2d_8">
      <g>
       <use xlink:href="#m75b3b72454" x="680.679091" y="251.44" style="stroke: #000000; stroke-width: 0.8"/>
      </g>
     </g>
     <g id="text_8">
      <!-- 14 -->
      <g transform="translate(674.316591 266.038437) scale(0.1 -0.1)">
       <use xlink:href="#DejaVuSans-31"/>
       <use xlink:href="#DejaVuSans-34" x="63.623047"/>
      </g>
     </g>
    </g>
    <g id="text_9">
     <!-- pH -->
     <g transform="translate(388.535625 279.716563) scale(0.1 -0.1)">
      <defs>
       <path id="DejaVuSans-70" d="M 1159 525 
L 1159 -1331 
L 581 -1331 
L 581 3500 
L 1159 3500 
L 1159 2969 
Q 1341 3281 1617 3432 
Q 1894 3584 2278 3584 
Q 2916 3584 3314 3078 
Q 3713 2572 3713 1747 
Q 3713 922 3314 415 
Q 2916 -91 2278 -91 
Q 1894 -91 1617 61 
Q 1341 213 1159 525 
z
M 3116 1747 
Q 3116 2381 2855 2742 
Q 2594 3103 2138 3103 
Q 1681 3103 1420 2742 
Q 1159 2381 1159 1747 
Q 1159 1113 1420 752 
Q 1681 391 2138 391 
Q 2594 391 2855 752 
Q 3116 1113 3116 1747 
z
" transform="scale(0.015625)"/>
       <path id="DejaVuSans-48" d="M 628 4666 
L 1259 4666 
L 1259 2753 
L 3553 2753 
L 3553 4666 
L 4184 4666 
L 4184 0 
L 3553 0 
L 3553 2222 
L 1259 2222 
L 1259 0 
L 628 0 
L 628 4666 
z
" transform="scale(0.015625)"/>
      </defs>
      <use xlink:href="#DejaVuSans-70"/>
      <use xlink:href="#DejaVuSans-48" x="63.476562"/>
     </g>
    </g>
   </g>
   <g id="matplotlib.axis_2">
    <g id="ytick_1">
     <g id="line2d_9">
      <defs>
       <path id="ma22322bcd0" d="M 0 0 
L -3.5 0 
" style="stroke: #000000; stroke-width: 0.8"/>
      </defs>
      <g>
       <use xlink:href="#ma22322bcd0" x="81.74" y="229.129878" style="stroke: #000000; stroke-width: 0.8"/>
      </g>
     </g>
     <g id="text_10">
      <!-- −0.002 -->
      <g transform="translate(37.732188 232.929097) scale(0.1 -0.1)">
       <defs>
        <path id="DejaVuSans-2212" d="M 678 2272 
L 4684 2272 
L 4684 1741 
L 678 1741 
L 678 2272 
z
" transform="scale(0.015625)"/>
        <path id="DejaVuSans-2e" d="M 684 794 
L 1344 794 
L 1344 0 
L 684 0 
L 684 794 
z
" transform="scale(0.015625)"/>
       </defs>
       <use xlink:href="#DejaVuSans-2212"/>
       <use xlink:href="#DejaVuSans-30" x="83.789062"/>
       <use xlink:href="#DejaVuSans-2e" x="147.412109"/>
       <use xlink:href="#DejaVuSans-30" x="179.199219"/>
       <use xlink:href="#DejaVuSans-30" x="242.822266"/>
       <use xlink:href="#DejaVuSans-32" x="306.445312"/>
      </g>
     </g>
    </g>
    <g id="ytick_2">
     <g id="line2d_10">
      <g>
       <use xlink:href="#ma22322bcd0" x="81.74" y="183.869737" style="stroke: #000000; stroke-width: 0.8"/>
      </g>
     </g>
     <g id="text_11">
      <!-- −0.001 -->
      <g transform="translate(37.732188 187.668956) scale(0.1 -0.1)">
       <use xlink:href="#DejaVuSans-2212"/>
       <use xlink:href="#DejaVuSans-30" x="83.789062"/>
       <use xlink:href="#DejaVuSans-2e" x="147.412109"/>
       <use xlink:href="#DejaVuSans-30" x="179.199219"/>
       <use xlink:href="#DejaVuSans-30" x="242.822266"/>
       <use xlink:href="#DejaVuSans-31" x="306.445312"/>
      </g>
     </g>
    </g>
    <g id="ytick_3">
     <g id="line2d_11">
      <g>
       <use xlink:href="#ma22322bcd0" x="81.74" y="138.609597" style="stroke: #000000; stroke-width: 0.8"/>
      </g>
     </g>
     <g id="text_12">
      <!-- 0.000 -->
      <g transform="translate(46.111875 142.408815) scale(0.1 -0.1)">
       <use xlink:href="#DejaVuSans-30"/>
       <use xlink:href="#DejaVuSans-2e" x="63.623047"/>
       <use xlink:href="#DejaVuSans-30" x="95.410156"/>
       <use xlink:href="#DejaVuSans-30" x="159.033203"/>
       <use xlink:href="#DejaVuSans-30" x="222.65625"/>
      </g>
     </g>
    </g>
    <g id="ytick_4">
     <g id="line2d_12">
      <g>
       <use xlink:href="#ma22322bcd0" x="81.74" y="93.349456" style="stroke: #000000; stroke-width: 0.8"/>
      </g>
     </g>
     <g id="text_13">
      <!-- 0.001 -->
      <g transform="translate(46.111875 97.148675) scale(0.1 -0.1)">
       <use xlink:href="#DejaVuSans-30"/>
       <use xlink:href="#DejaVuSans-2e" x="63.623047"/>
       <use xlink:href="#DejaVuSans-30" x="95.410156"/>
       <use xlink:href="#DejaVuSans-30" x="159.033203"/>
       <use xlink:href="#DejaVuSans-31" x="222.65625"/>
      </g>
     </g>
    </g>
    <g id="ytick_5">
     <g id="line2d_13">
      <g>
       <use xlink:href="#ma22322bcd0" x="81.74" y="48.089315" style="stroke: #000000; stroke-width: 0.8"/>
      </g>
     </g>
     <g id="text_14">
      <!-- 0.002 -->
      <g transform="translate(46.111875 51.888534) scale(0.1 -0.1)">
       <use xlink:href="#DejaVuSans-30"/>
       <use xlink:href="#DejaVuSans-2e" x="63.623047"/>
       <use xlink:href="#DejaVuSans-30" x="95.410156"/>
       <use xlink:href="#DejaVuSans-30" x="159.033203"/>
       <use xlink:href="#DejaVuSans-32" x="222.65625"/>
      </g>
     </g>
    </g>
    <g id="text_15">
     <!-- Potential -->
     <g transform="translate(31.6525 160.340781) rotate(-90) scale(0.1 -0.1)">
      <defs>
       <path id="DejaVuSans-50" d="M 1259 4147 
L 1259 2394 
L 2053 2394 
Q 2494 2394 2734 2622 
Q 2975 2850 2975 3272 
Q 2975 3691 2734 3919 
Q 2494 4147 2053 4147 
L 1259 4147 
z
M 628 4666 
L 2053 4666 
Q 2838 4666 3239 4311 
Q 3641 3956 3641 3272 
Q 3641 2581 3239 2228 
Q 2838 1875 2053 1875 
L 1259 1875 
L 1259 0 
L 628 0 
L 628 4666 
z
" transform="scale(0.015625)"/>
       <path id="DejaVuSans-6f" d="M 1959 3097 
Q 1497 3097 1228 2736 
Q 959 2375 959 1747 
Q 959 1119 1226 758 
Q 1494 397 1959 397 
Q 2419 397 2687 759 
Q 2956 1122 2956 1747 
Q 2956 2369 2687 2733 
Q 2419 3097 1959 3097 
z
M 1959 3584 
Q 2709 3584 3137 3096 
Q 3566 2609 3566 1747 
Q 3566 888 3137 398 
Q 2709 -91 1959 -91 
Q 1206 -91 779 398 
Q 353 888 353 1747 
Q 353 2609 779 3096 
Q 1206 3584 1959 3584 
z
" transform="scale(0.015625)"/>
       <path id="DejaVuSans-74" d="M 1172 4494 
L 1172 3500 
L 2356 3500 
L 2356 3053 
L 1172 3053 
L 1172 1153 
Q 1172 725 1289 603 
Q 1406 481 1766 481 
L 2356 481 
L 2356 0 
L 1766 0 
Q 1100 0 847 248 
Q 594 497 594 1153 
L 594 3053 
L 172 3053 
L 172 3500 
L 594 3500 
L 594 4494 
L 1172 4494 
z
" transform="scale(0.015625)"/>
       <path id="DejaVuSans-65" d="M 3597 1894 
L 3597 1613 
L 953 1613 
Q 991 1019 1311 708 
Q 1631 397 2203 397 
Q 2534 397 2845 478 
Q 3156 559 3463 722 
L 3463 178 
Q 3153 47 2828 -22 
Q 2503 -91 2169 -91 
Q 1331 -91 842 396 
Q 353 884 353 1716 
Q 353 2575 817 3079 
Q 1281 3584 2069 3584 
Q 2775 3584 3186 3129 
Q 3597 2675 3597 1894 
z
M 3022 2063 
Q 3016 2534 2758 2815 
Q 2500 3097 2075 3097 
Q 1594 3097 1305 2825 
Q 1016 2553 972 2059 
L 3022 2063 
z
" transform="scale(0.015625)"/>
       <path id="DejaVuSans-6e" d="M 3513 2113 
L 3513 0 
L 2938 0 
L 2938 2094 
Q 2938 2591 2744 2837 
Q 2550 3084 2163 3084 
Q 1697 3084 1428 2787 
Q 1159 2491 1159 1978 
L 1159 0 
L 581 0 
L 581 3500 
L 1159 3500 
L 1159 2956 
Q 1366 3272 1645 3428 
Q 1925 3584 2291 3584 
Q 2894 3584 3203 3211 
Q 3513 2838 3513 2113 
z
" transform="scale(0.015625)"/>
       <path id="DejaVuSans-69" d="M 603 3500 
L 1178 3500 
L 1178 0 
L 603 0 
L 603 3500 
z
M 603 4863 
L 1178 4863 
L 1178 4134 
L 603 4134 
L 603 4863 
z
" transform="scale(0.015625)"/>
       <path id="DejaVuSans-61" d="M 2194 1759 
Q 1497 1759 1228 1600 
Q 959 1441 959 1056 
Q 959 750 1161 570 
Q 1363 391 1709 391 
Q 2188 391 2477 730 
Q 2766 1069 2766 1631 
L 2766 1759 
L 2194 1759 
z
M 3341 1997 
L 3341 0 
L 2766 0 
L 2766 531 
Q 2569 213 2275 61 
Q 1981 -91 1556 -91 
Q 1019 -91 701 211 
Q 384 513 384 1019 
Q 384 1609 779 1909 
Q 1175 2209 1959 2209 
L 2766 2209 
L 2766 2266 
Q 2766 2663 2505 2880 
Q 2244 3097 1772 3097 
Q 1472 3097 1187 3025 
Q 903 2953 641 2809 
L 641 3341 
Q 956 3463 1253 3523 
Q 1550 3584 1831 3584 
Q 2591 3584 2966 3190 
Q 3341 2797 3341 1997 
z
" transform="scale(0.015625)"/>
       <path id="DejaVuSans-6c" d="M 603 4863 
L 1178 4863 
L 1178 0 
L 603 0 
L 603 4863 
z
" transform="scale(0.015625)"/>
      </defs>
      <use xlink:href="#DejaVuSans-50"/>
      <use xlink:href="#DejaVuSans-6f" x="56.677734"/>
      <use xlink:href="#DejaVuSans-74" x="117.859375"/>
      <use xlink:href="#DejaVuSans-65" x="157.068359"/>
      <use xlink:href="#DejaVuSans-6e" x="218.591797"/>
      <use xlink:href="#DejaVuSans-74" x="281.970703"/>
      <use xlink:href="#DejaVuSans-69" x="321.179688"/>
      <use xlink:href="#DejaVuSans-61" x="348.962891"/>
      <use xlink:href="#DejaVuSans-6c" x="410.242188"/>
     </g>
    </g>
   </g>
   <g id="line2d_14">
    <path d="M 110.260909 138.682504 
L 112.299573 138.769495 
L 129.832083 139.039393 
L 141.248602 139.426525 
L 149.81099 139.929862 
L 156.742448 140.553584 
L 162.450707 141.278557 
L 167.343501 142.105827 
L 171.828561 143.079588 
L 175.905889 144.187648 
L 179.575484 145.404658 
L 183.24508 146.868332 
L 186.506942 148.409239 
L 189.768804 150.207027 
L 192.622934 152.014254 
L 195.477063 154.059565 
L 198.331193 156.358614 
L 201.185323 158.921972 
L 204.447185 162.178173 
L 207.709047 165.768285 
L 211.378643 170.152694 
L 216.679169 176.884132 
L 221.571962 183.004757 
L 224.426092 186.21853 
L 226.464756 188.21492 
L 228.095687 189.569006 
L 229.726618 190.658215 
L 231.35755 191.436253 
L 232.580748 191.787735 
L 233.803946 191.919121 
L 235.027145 191.812178 
L 236.250343 191.449867 
L 237.473541 190.816739 
L 238.69674 189.899347 
L 239.919938 188.686657 
L 241.143137 187.17044 
L 242.366335 185.345643 
L 243.997266 182.430427 
L 245.628197 178.971188 
L 247.259129 174.987571 
L 249.297793 169.321847 
L 251.336457 162.981428 
L 253.782853 154.656104 
L 257.452449 141.2521 
L 262.752975 121.814069 
L 265.607104 112.253848 
L 267.645768 106.117101 
L 269.684432 100.68833 
L 271.315364 96.91175 
L 272.946295 93.669526 
L 274.577226 90.97627 
L 275.800424 89.318316 
L 277.023623 87.967198 
L 278.246821 86.916185 
L 279.470019 86.155562 
L 280.693218 85.673013 
L 281.916416 85.454028 
L 283.139615 85.482312 
L 284.362813 85.740193 
L 285.586011 86.209013 
L 287.216943 87.128886 
L 288.847874 88.3432 
L 290.886538 90.205412 
L 292.925202 92.370064 
L 295.779331 95.757863 
L 300.264392 101.512667 
L 306.788117 109.844526 
L 310.457712 114.169086 
L 313.719574 117.697916 
L 316.981437 120.907236 
L 320.243299 123.799574 
L 323.505161 126.393825 
L 326.767024 128.719661 
L 330.436619 131.060773 
L 334.513947 133.387391 
L 339.406741 135.910788 
L 356.123785 144.283673 
L 359.79338 146.492064 
L 363.055243 148.697729 
L 366.317105 151.190847 
L 369.171235 153.655384 
L 372.025364 156.427215 
L 374.879494 159.54833 
L 377.325891 162.532696 
L 379.772287 165.828043 
L 382.218684 169.455764 
L 384.665081 173.432791 
L 387.51921 178.527532 
L 390.37334 184.111987 
L 393.22747 190.163125 
L 396.489332 197.579726 
L 400.974393 208.377149 
L 407.090385 223.071965 
L 409.536781 228.428497 
L 411.575445 232.429318 
L 413.206377 235.223869 
L 414.837308 237.573149 
L 416.060506 238.994757 
L 417.283705 240.086896 
L 418.506903 240.816005 
L 419.322369 241.084232 
L 420.137834 241.167273 
L 420.9533 241.056196 
L 421.768765 240.742532 
L 422.584231 240.218353 
L 423.399697 239.476361 
L 424.215162 238.509963 
L 425.438361 236.627153 
L 426.661559 234.210741 
L 427.884757 231.249827 
L 429.107956 227.738951 
L 430.738887 222.20387 
L 432.369818 215.710713 
L 434.000749 208.298114 
L 436.039413 197.831669 
L 438.078077 186.182582 
L 440.524474 170.934064 
L 444.194069 146.373546 
L 450.310061 105.087409 
L 453.164191 87.509713 
L 455.202855 76.161684 
L 457.241519 66.043243 
L 458.87245 58.933815 
L 460.503381 52.758034 
L 462.134312 47.547305 
L 463.357511 44.280046 
L 464.580709 41.55993 
L 465.803907 39.378886 
L 467.027106 37.723624 
L 467.842571 36.903511 
L 468.658037 36.302803 
L 469.473503 35.914396 
L 470.288968 35.730534 
L 471.104434 35.742895 
L 471.919899 35.942668 
L 472.735365 36.320636 
L 473.958563 37.200771 
L 475.181762 38.42717 
L 476.40496 39.965989 
L 478.035891 42.44498 
L 479.666822 45.339346 
L 481.705486 49.424531 
L 484.151883 54.827154 
L 488.229211 64.492847 
L 494.752936 79.998095 
L 498.014798 87.210857 
L 501.276661 93.86589 
L 504.13079 99.180512 
L 506.98492 104.007756 
L 509.839049 108.357349 
L 512.693179 112.253328 
L 515.547308 115.72845 
L 518.401438 118.81966 
L 521.255568 121.564555 
L 524.109697 123.998822 
L 526.963827 126.154598 
L 529.817956 128.059706 
L 533.079819 129.960006 
L 536.341681 131.592698 
L 539.603543 132.982529 
L 543.273139 134.283533 
L 546.942734 135.336092 
L 551.020062 136.252052 
L 555.09739 136.943064 
L 559.990183 137.535125 
L 565.698442 137.983164 
L 572.6299 138.294736 
L 582.415487 138.495682 
L 599.947997 138.592588 
L 669.670305 138.60959 
L 680.679091 138.609596 
L 680.679091 138.609596 
" clip-path="url(#p2203dbb30e)" style="fill: none; stroke: #1f77b4; stroke-width: 1.5; stroke-linecap: square"/>
   </g>
   <g id="line2d_15">
    <path d="M 110.260909 138.609597 
L 680.679091 138.609597 
L 680.679091 138.609597 
" clip-path="url(#p2203dbb30e)" style="fill: none; stroke-dasharray: 5.55,2.4; stroke-dashoffset: 0; stroke: #ff7f0e; stroke-width: 1.5"/>
   </g>
   <g id="patch_3">
    <path d="M 81.74 251.44 
L 81.74 25.44 
" style="fill: none; stroke: #000000; stroke-width: 0.8; stroke-linejoin: miter; stroke-linecap: square"/>
   </g>
   <g id="patch_4">
    <path d="M 709.2 251.44 
L 709.2 25.44 
" style="fill: none; stroke: #000000; stroke-width: 0.8; stroke-linejoin: miter; stroke-linecap: square"/>
   </g>
   <g id="patch_5">
    <path d="M 81.74 251.44 
L 709.2 251.44 
" style="fill: none; stroke: #000000; stroke-width: 0.8; stroke-linejoin: miter; stroke-linecap: square"/>
   </g>
   <g id="patch_6">
    <path d="M 81.74 25.44 
L 709.2 25.44 
" style="fill: none; stroke: #000000; stroke-width: 0.8; stroke-linejoin: miter; stroke-linecap: square"/>
   </g>
   <g id="text_16">
    <!-- PDAC - Potential -->
    <g transform="translate(346.88875 19.44) scale(0.12 -0.12)">
     <defs>
      <path id="DejaVuSans-44" d="M 1259 4147 
L 1259 519 
L 2022 519 
Q 2988 519 3436 956 
Q 3884 1394 3884 2338 
Q 3884 3275 3436 3711 
Q 2988 4147 2022 4147 
L 1259 4147 
z
M 628 4666 
L 1925 4666 
Q 3281 4666 3915 4102 
Q 4550 3538 4550 2338 
Q 4550 1131 3912 565 
Q 3275 0 1925 0 
L 628 0 
L 628 4666 
z
" transform="scale(0.015625)"/>
      <path id="DejaVuSans-41" d="M 2188 4044 
L 1331 1722 
L 3047 1722 
L 2188 4044 
z
M 1831 4666 
L 2547 4666 
L 4325 0 
L 3669 0 
L 3244 1197 
L 1141 1197 
L 716 0 
L 50 0 
L 1831 4666 
z
" transform="scale(0.015625)"/>
      <path id="DejaVuSans-43" d="M 4122 4306 
L 4122 3641 
Q 3803 3938 3442 4084 
Q 3081 4231 2675 4231 
Q 1875 4231 1450 3742 
Q 1025 3253 1025 2328 
Q 1025 1406 1450 917 
Q 1875 428 2675 428 
Q 3081 428 3442 575 
Q 3803 722 4122 1019 
L 4122 359 
Q 3791 134 3420 21 
Q 3050 -91 2638 -91 
Q 1578 -91 968 557 
Q 359 1206 359 2328 
Q 359 3453 968 4101 
Q 1578 4750 2638 4750 
Q 3056 4750 3426 4639 
Q 3797 4528 4122 4306 
z
" transform="scale(0.015625)"/>
      <path id="DejaVuSans-20" transform="scale(0.015625)"/>
      <path id="DejaVuSans-2d" d="M 313 2009 
L 1997 2009 
L 1997 1497 
L 313 1497 
L 313 2009 
z
" transform="scale(0.015625)"/>
     </defs>
     <use xlink:href="#DejaVuSans-50"/>
     <use xlink:href="#DejaVuSans-44" x="60.302734"/>
     <use xlink:href="#DejaVuSans-41" x="135.554688"/>
     <use xlink:href="#DejaVuSans-43" x="202.212891"/>
     <use xlink:href="#DejaVuSans-20" x="272.037109"/>
     <use xlink:href="#DejaVuSans-2d" x="303.824219"/>
     <use xlink:href="#DejaVuSans-20" x="339.908203"/>
     <use xlink:href="#DejaVuSans-50" x="371.695312"/>
     <use xlink:href="#DejaVuSans-6f" x="428.373047"/>
     <use xlink:href="#DejaVuSans-74" x="489.554688"/>
     <use xlink:href="#DejaVuSans-65" x="528.763672"/>
     <use xlink:href="#DejaVuSans-6e" x="590.287109"/>
     <use xlink:href="#DejaVuSans-74" x="653.666016"/>
     <use xlink:href="#DejaVuSans-69" x="692.875"/>
     <use xlink:href="#DejaVuSans-61" x="720.658203"/>
     <use xlink:href="#DejaVuSans-6c" x="781.9375"/>
    </g>
   </g>
   <g id="PathCollection_1">
    <defs>
     <path id="C0_0_d54ef99a87" d="M 0 7.071068 
C 1.875269 7.071068 3.673985 6.326016 5 5 
C 6.326016 3.673985 7.071068 1.875269 7.071068 -0 
C 7.071068 -1.875269 6.326016 -3.673985 5 -5 
C 3.673985 -6.326016 1.875269 -7.071068 0 -7.071068 
C -1.875269 -7.071068 -3.673985 -6.326016 -5 -5 
C -6.326016 -3.673985 -7.071068 -1.875269 -7.071068 0 
C -7.071068 1.875269 -6.326016 3.673985 -5 5 
C -3.673985 6.326016 -1.875269 7.071068 0 7.071068 
z
"/>
    </defs>
    <g clip-path="url(#p2203dbb30e)">
     <use xlink:href="#C0_0_d54ef99a87" x="257.860181" y="139.731303" style="fill: none; stroke: #ff0000"/>
    </g>
    <g clip-path="url(#p2203dbb30e)">
     <use xlink:href="#C0_0_d54ef99a87" x="344.707267" y="138.474569" style="fill: none; stroke: #ff0000"/>
    </g>
    <g clip-path="url(#p2203dbb30e)">
     <use xlink:href="#C0_0_d54ef99a87" x="445.009535" y="140.78104" style="fill: none; stroke: #ff0000"/>
    </g>
   </g>
   <g id="PathCollection_2">
    <defs>
     <path id="m4139992d50" d="M 0 -5 
L -5 5 
L 5 5 
z
" style="stroke: #ff0000"/>
    </defs>
    <g clip-path="url(#p2203dbb30e)">
     <use xlink:href="#m4139992d50" x="470.696701" y="35.712727" style="fill: #ff0000; stroke: #ff0000"/>
     <use xlink:href="#m4139992d50" x="420.137834" y="241.167273" style="fill: #ff0000; stroke: #ff0000"/>
    </g>
   </g>
   <g id="legend_1">
    <g id="patch_7">
     <path d="M 588.55 48.118125 
L 702.2 48.118125 
Q 704.2 48.118125 704.2 46.118125 
L 704.2 32.44 
Q 704.2 30.44 702.2 30.44 
L 588.55 30.44 
Q 586.55 30.44 586.55 32.44 
L 586.55 46.118125 
Q 586.55 48.118125 588.55 48.118125 
z
" style="fill: #ffffff; opacity: 0.8; stroke: #cccccc; stroke-linejoin: miter"/>
    </g>
    <g id="line2d_16">
     <path d="M 590.55 38.538437 
L 600.55 38.538437 
L 610.55 38.538437 
" style="fill: none; stroke: #1f77b4; stroke-width: 1.5; stroke-linecap: square"/>
    </g>
    <g id="text_17">
     <!-- PDAC - potential -->
     <g transform="translate(618.55 42.038437) scale(0.1 -0.1)">
      <use xlink:href="#DejaVuSans-50"/>
      <use xlink:href="#DejaVuSans-44" x="60.302734"/>
      <use xlink:href="#DejaVuSans-41" x="135.554688"/>
      <use xlink:href="#DejaVuSans-43" x="202.212891"/>
      <use xlink:href="#DejaVuSans-20" x="272.037109"/>
      <use xlink:href="#DejaVuSans-2d" x="303.824219"/>
      <use xlink:href="#DejaVuSans-20" x="339.908203"/>
      <use xlink:href="#DejaVuSans-70" x="371.695312"/>
      <use xlink:href="#DejaVuSans-6f" x="435.171875"/>
      <use xlink:href="#DejaVuSans-74" x="496.353516"/>
      <use xlink:href="#DejaVuSans-65" x="535.5625"/>
      <use xlink:href="#DejaVuSans-6e" x="597.085938"/>
      <use xlink:href="#DejaVuSans-74" x="660.464844"/>
      <use xlink:href="#DejaVuSans-69" x="699.673828"/>
      <use xlink:href="#DejaVuSans-61" x="727.457031"/>
      <use xlink:href="#DejaVuSans-6c" x="788.736328"/>
     </g>
    </g>
   </g>
  </g>
  <g id="axes_2">
   <g id="patch_8">
    <path d="M 81.74 534.04 
L 709.2 534.04 
L 709.2 308.04 
L 81.74 308.04 
L 81.74 534.04 
z
" style="fill: none"/>
   </g>
   <g id="matplotlib.axis_3">
    <g id="xtick_9">
     <g id="line2d_17">
      <g>
       <use xlink:href="#m75b3b72454" x="110.260909" y="534.04" style="stroke: #000000; stroke-width: 0.8"/>
      </g>
     </g>
     <g id="text_18">
      <!-- 0 -->
      <g transform="translate(107.079659 548.638438) scale(0.1 -0.1)">
       <use xlink:href="#DejaVuSans-30"/>
      </g>
     </g>
    </g>
    <g id="xtick_10">
     <g id="line2d_18">
      <g>
       <use xlink:href="#m75b3b72454" x="191.749221" y="534.04" style="stroke: #000000; stroke-width: 0.8"/>
      </g>
     </g>
     <g id="text_19">
      <!-- 2 -->
      <g transform="translate(188.567971 548.638438) scale(0.1 -0.1)">
       <use xlink:href="#DejaVuSans-32"/>
      </g>
     </g>
    </g>
    <g id="xtick_11">
     <g id="line2d_19">
      <g>
       <use xlink:href="#m75b3b72454" x="273.237532" y="534.04" style="stroke: #000000; stroke-width: 0.8"/>
      </g>
     </g>
     <g id="text_20">
      <!-- 4 -->
      <g transform="translate(270.056282 548.638438) scale(0.1 -0.1)">
       <use xlink:href="#DejaVuSans-34"/>
      </g>
     </g>
    </g>
    <g id="xtick_12">
     <g id="line2d_20">
      <g>
       <use xlink:href="#m75b3b72454" x="354.725844" y="534.04" style="stroke: #000000; stroke-width: 0.8"/>
      </g>
     </g>
     <g id="text_21">
      <!-- 6 -->
      <g transform="translate(351.544594 548.638438) scale(0.1 -0.1)">
       <use xlink:href="#DejaVuSans-36"/>
      </g>
     </g>
    </g>
    <g id="xtick_13">
     <g id="line2d_21">
      <g>
       <use xlink:href="#m75b3b72454" x="436.214156" y="534.04" style="stroke: #000000; stroke-width: 0.8"/>
      </g>
     </g>
     <g id="text_22">
      <!-- 8 -->
      <g transform="translate(433.032906 548.638438) scale(0.1 -0.1)">
       <use xlink:href="#DejaVuSans-38"/>
      </g>
     </g>
    </g>
    <g id="xtick_14">
     <g id="line2d_22">
      <g>
       <use xlink:href="#m75b3b72454" x="517.702468" y="534.04" style="stroke: #000000; stroke-width: 0.8"/>
      </g>
     </g>
     <g id="text_23">
      <!-- 10 -->
      <g transform="translate(511.339968 548.638438) scale(0.1 -0.1)">
       <use xlink:href="#DejaVuSans-31"/>
       <use xlink:href="#DejaVuSans-30" x="63.623047"/>
      </g>
     </g>
    </g>
    <g id="xtick_15">
     <g id="line2d_23">
      <g>
       <use xlink:href="#m75b3b72454" x="599.190779" y="534.04" style="stroke: #000000; stroke-width: 0.8"/>
      </g>
     </g>
     <g id="text_24">
      <!-- 12 -->
      <g transform="translate(592.828279 548.638438) scale(0.1 -0.1)">
       <use xlink:href="#DejaVuSans-31"/>
       <use xlink:href="#DejaVuSans-32" x="63.623047"/>
      </g>
     </g>
    </g>
    <g id="xtick_16">
     <g id="line2d_24">
      <g>
       <use xlink:href="#m75b3b72454" x="680.679091" y="534.04" style="stroke: #000000; stroke-width: 0.8"/>
      </g>
     </g>
     <g id="text_25">
      <!-- 14 -->
      <g transform="translate(674.316591 548.638438) scale(0.1 -0.1)">
       <use xlink:href="#DejaVuSans-31"/>
       <use xlink:href="#DejaVuSans-34" x="63.623047"/>
      </g>
     </g>
    </g>
    <g id="text_26">
     <!-- pH -->
     <g transform="translate(388.535625 562.316563) scale(0.1 -0.1)">
      <use xlink:href="#DejaVuSans-70"/>
      <use xlink:href="#DejaVuSans-48" x="63.476562"/>
     </g>
    </g>
   </g>
   <g id="matplotlib.axis_4">
    <g id="ytick_6">
     <g id="line2d_25">
      <g>
       <use xlink:href="#ma22322bcd0" x="81.74" y="532.076083" style="stroke: #000000; stroke-width: 0.8"/>
      </g>
     </g>
     <g id="text_27">
      <!-- −0.00015 -->
      <g transform="translate(25.007188 535.875302) scale(0.1 -0.1)">
       <defs>
        <path id="DejaVuSans-35" d="M 691 4666 
L 3169 4666 
L 3169 4134 
L 1269 4134 
L 1269 2991 
Q 1406 3038 1543 3061 
Q 1681 3084 1819 3084 
Q 2600 3084 3056 2656 
Q 3513 2228 3513 1497 
Q 3513 744 3044 326 
Q 2575 -91 1722 -91 
Q 1428 -91 1123 -41 
Q 819 9 494 109 
L 494 744 
Q 775 591 1075 516 
Q 1375 441 1709 441 
Q 2250 441 2565 725 
Q 2881 1009 2881 1497 
Q 2881 1984 2565 2268 
Q 2250 2553 1709 2553 
Q 1456 2553 1204 2497 
Q 953 2441 691 2322 
L 691 4666 
z
" transform="scale(0.015625)"/>
       </defs>
       <use xlink:href="#DejaVuSans-2212"/>
       <use xlink:href="#DejaVuSans-30" x="83.789062"/>
       <use xlink:href="#DejaVuSans-2e" x="147.412109"/>
       <use xlink:href="#DejaVuSans-30" x="179.199219"/>
       <use xlink:href="#DejaVuSans-30" x="242.822266"/>
       <use xlink:href="#DejaVuSans-30" x="306.445312"/>
       <use xlink:href="#DejaVuSans-31" x="370.068359"/>
       <use xlink:href="#DejaVuSans-35" x="433.691406"/>
      </g>
     </g>
    </g>
    <g id="ytick_7">
     <g id="line2d_26">
      <g>
       <use xlink:href="#ma22322bcd0" x="81.74" y="498.670699" style="stroke: #000000; stroke-width: 0.8"/>
      </g>
     </g>
     <g id="text_28">
      <!-- −0.00010 -->
      <g transform="translate(25.007188 502.469918) scale(0.1 -0.1)">
       <use xlink:href="#DejaVuSans-2212"/>
       <use xlink:href="#DejaVuSans-30" x="83.789062"/>
       <use xlink:href="#DejaVuSans-2e" x="147.412109"/>
       <use xlink:href="#DejaVuSans-30" x="179.199219"/>
       <use xlink:href="#DejaVuSans-30" x="242.822266"/>
       <use xlink:href="#DejaVuSans-30" x="306.445312"/>
       <use xlink:href="#DejaVuSans-31" x="370.068359"/>
       <use xlink:href="#DejaVuSans-30" x="433.691406"/>
      </g>
     </g>
    </g>
    <g id="ytick_8">
     <g id="line2d_27">
      <g>
       <use xlink:href="#ma22322bcd0" x="81.74" y="465.265316" style="stroke: #000000; stroke-width: 0.8"/>
      </g>
     </g>
     <g id="text_29">
      <!-- −0.00005 -->
      <g transform="translate(25.007188 469.064535) scale(0.1 -0.1)">
       <use xlink:href="#DejaVuSans-2212"/>
       <use xlink:href="#DejaVuSans-30" x="83.789062"/>
       <use xlink:href="#DejaVuSans-2e" x="147.412109"/>
       <use xlink:href="#DejaVuSans-30" x="179.199219"/>
       <use xlink:href="#DejaVuSans-30" x="242.822266"/>
       <use xlink:href="#DejaVuSans-30" x="306.445312"/>
       <use xlink:href="#DejaVuSans-30" x="370.068359"/>
       <use xlink:href="#DejaVuSans-35" x="433.691406"/>
      </g>
     </g>
    </g>
    <g id="ytick_9">
     <g id="line2d_28">
      <g>
       <use xlink:href="#ma22322bcd0" x="81.74" y="431.859932" style="stroke: #000000; stroke-width: 0.8"/>
      </g>
     </g>
     <g id="text_30">
      <!-- 0.00000 -->
      <g transform="translate(33.386875 435.659151) scale(0.1 -0.1)">
       <use xlink:href="#DejaVuSans-30"/>
       <use xlink:href="#DejaVuSans-2e" x="63.623047"/>
       <use xlink:href="#DejaVuSans-30" x="95.410156"/>
       <use xlink:href="#DejaVuSans-30" x="159.033203"/>
       <use xlink:href="#DejaVuSans-30" x="222.65625"/>
       <use xlink:href="#DejaVuSans-30" x="286.279297"/>
       <use xlink:href="#DejaVuSans-30" x="349.902344"/>
      </g>
     </g>
    </g>
    <g id="ytick_10">
     <g id="line2d_29">
      <g>
       <use xlink:href="#ma22322bcd0" x="81.74" y="398.454549" style="stroke: #000000; stroke-width: 0.8"/>
      </g>
     </g>
     <g id="text_31">
      <!-- 0.00005 -->
      <g transform="translate(33.386875 402.253768) scale(0.1 -0.1)">
       <use xlink:href="#DejaVuSans-30"/>
       <use xlink:href="#DejaVuSans-2e" x="63.623047"/>
       <use xlink:href="#DejaVuSans-30" x="95.410156"/>
       <use xlink:href="#DejaVuSans-30" x="159.033203"/>
       <use xlink:href="#DejaVuSans-30" x="222.65625"/>
       <use xlink:href="#DejaVuSans-30" x="286.279297"/>
       <use xlink:href="#DejaVuSans-35" x="349.902344"/>
      </g>
     </g>
    </g>
    <g id="ytick_11">
     <g id="line2d_30">
      <g>
       <use xlink:href="#ma22322bcd0" x="81.74" y="365.049165" style="stroke: #000000; stroke-width: 0.8"/>
      </g>
     </g>
     <g id="text_32">
      <!-- 0.00010 -->
      <g transform="translate(33.386875 368.848384) scale(0.1 -0.1)">
       <use xlink:href="#DejaVuSans-30"/>
       <use xlink:href="#DejaVuSans-2e" x="63.623047"/>
       <use xlink:href="#DejaVuSans-30" x="95.410156"/>
       <use xlink:href="#DejaVuSans-30" x="159.033203"/>
       <use xlink:href="#DejaVuSans-30" x="222.65625"/>
       <use xlink:href="#DejaVuSans-31" x="286.279297"/>
       <use xlink:href="#DejaVuSans-30" x="349.902344"/>
      </g>
     </g>
    </g>
    <g id="ytick_12">
     <g id="line2d_31">
      <g>
       <use xlink:href="#ma22322bcd0" x="81.74" y="331.643782" style="stroke: #000000; stroke-width: 0.8"/>
      </g>
     </g>
     <g id="text_33">
      <!-- 0.00015 -->
      <g transform="translate(33.386875 335.443001) scale(0.1 -0.1)">
       <use xlink:href="#DejaVuSans-30"/>
       <use xlink:href="#DejaVuSans-2e" x="63.623047"/>
       <use xlink:href="#DejaVuSans-30" x="95.410156"/>
       <use xlink:href="#DejaVuSans-30" x="159.033203"/>
       <use xlink:href="#DejaVuSans-30" x="222.65625"/>
       <use xlink:href="#DejaVuSans-31" x="286.279297"/>
       <use xlink:href="#DejaVuSans-35" x="349.902344"/>
      </g>
     </g>
    </g>
    <g id="text_34">
     <!-- Capacitance -->
     <g transform="translate(18.9275 451.990781) rotate(-90) scale(0.1 -0.1)">
      <defs>
       <path id="DejaVuSans-63" d="M 3122 3366 
L 3122 2828 
Q 2878 2963 2633 3030 
Q 2388 3097 2138 3097 
Q 1578 3097 1268 2742 
Q 959 2388 959 1747 
Q 959 1106 1268 751 
Q 1578 397 2138 397 
Q 2388 397 2633 464 
Q 2878 531 3122 666 
L 3122 134 
Q 2881 22 2623 -34 
Q 2366 -91 2075 -91 
Q 1284 -91 818 406 
Q 353 903 353 1747 
Q 353 2603 823 3093 
Q 1294 3584 2113 3584 
Q 2378 3584 2631 3529 
Q 2884 3475 3122 3366 
z
" transform="scale(0.015625)"/>
      </defs>
      <use xlink:href="#DejaVuSans-43"/>
      <use xlink:href="#DejaVuSans-61" x="69.824219"/>
      <use xlink:href="#DejaVuSans-70" x="131.103516"/>
      <use xlink:href="#DejaVuSans-61" x="194.580078"/>
      <use xlink:href="#DejaVuSans-63" x="255.859375"/>
      <use xlink:href="#DejaVuSans-69" x="310.839844"/>
      <use xlink:href="#DejaVuSans-74" x="338.623047"/>
      <use xlink:href="#DejaVuSans-61" x="377.832031"/>
      <use xlink:href="#DejaVuSans-6e" x="439.111328"/>
      <use xlink:href="#DejaVuSans-63" x="502.490234"/>
      <use xlink:href="#DejaVuSans-65" x="557.470703"/>
     </g>
    </g>
   </g>
   <g id="line2d_32">
    <path d="M 110.260909 431.910335 
L 112.707306 431.973039 
L 132.686213 432.208432 
L 145.32593 432.56772 
L 154.703784 433.052869 
L 162.042974 433.648221 
L 168.158966 434.356299 
L 173.459492 435.180002 
L 178.352286 436.16069 
L 182.837347 437.285539 
L 186.914675 438.526664 
L 190.992003 440.000314 
L 195.069331 441.721411 
L 199.146659 443.688247 
L 203.631719 446.099017 
L 215.863703 452.872647 
L 218.3101 453.909868 
L 220.348764 454.574762 
L 222.387428 455.004842 
L 224.018359 455.144415 
L 225.64929 455.072667 
L 227.280222 454.763058 
L 228.911153 454.190827 
L 230.542084 453.334172 
L 232.173015 452.175522 
L 233.803946 450.702866 
L 235.434878 448.911047 
L 237.065809 446.802962 
L 239.104473 443.742205 
L 241.143137 440.251427 
L 243.589533 435.593931 
L 247.259129 428.003937 
L 252.151922 417.884971 
L 254.598319 413.346905 
L 256.636983 410.039251 
L 258.267914 407.77489 
L 259.898845 405.890909 
L 261.529776 404.412219 
L 262.752975 403.576801 
L 263.976173 402.976505 
L 265.199372 402.607598 
L 266.42257 402.462667 
L 267.645768 402.530984 
L 268.868967 402.798939 
L 270.499898 403.438817 
L 272.130829 404.362066 
L 274.169493 405.843538 
L 276.61589 407.977817 
L 279.877752 411.173641 
L 286.401477 417.637024 
L 289.255607 420.158273 
L 292.109736 422.386983 
L 294.963866 424.300666 
L 297.410263 425.693272 
L 300.264392 427.048175 
L 303.118522 428.142851 
L 305.972651 429.013526 
L 309.234514 429.781099 
L 312.904109 430.414549 
L 317.38917 430.943298 
L 322.689696 431.33033 
L 329.621153 431.600924 
L 339.814473 431.751708 
L 353.269656 431.726004 
L 363.055243 431.513364 
L 369.578967 431.162835 
L 374.471761 430.681596 
L 378.141356 430.119436 
L 381.403219 429.40795 
L 384.257348 428.563259 
L 386.703745 427.625495 
L 389.150142 426.440504 
L 391.188806 425.223903 
L 393.22747 423.759611 
L 395.266134 422.006328 
L 397.304798 419.919154 
L 399.343462 417.450358 
L 401.382126 414.550846 
L 403.42079 411.172196 
L 405.459454 407.269477 
L 407.498117 402.804895 
L 409.536781 397.752279 
L 411.575445 392.102349 
L 414.021842 384.554915 
L 416.468239 376.247616 
L 419.730101 364.267066 
L 426.661559 338.392201 
L 428.700223 331.761082 
L 430.331154 327.154503 
L 431.554352 324.216434 
L 432.777551 321.798692 
L 434.000749 319.968111 
L 434.816215 319.105044 
L 435.63168 318.548 
L 436.447146 318.312727 
L 437.262612 318.413375 
L 438.078077 318.862292 
L 438.893543 319.669839 
L 439.709008 320.844224 
L 440.524474 322.391341 
L 441.33994 324.31465 
L 442.563138 327.906265 
L 443.786336 332.337759 
L 445.009535 337.587565 
L 446.640466 345.797949 
L 448.271397 355.280525 
L 450.310061 368.68101 
L 452.756458 386.526137 
L 456.426053 415.305336 
L 460.911114 450.195211 
L 463.357511 467.570384 
L 465.396175 480.597079 
L 467.434839 492.040433 
L 469.06577 499.944802 
L 470.696701 506.687401 
L 471.919899 510.972926 
L 473.143098 514.60202 
L 474.366296 517.587819 
L 475.589494 519.950576 
L 476.812693 521.716628 
L 477.628158 522.57781 
L 478.443624 523.197978 
L 479.25909 523.58811 
L 480.074555 523.759712 
L 480.890021 523.724691 
L 481.705486 523.495242 
L 482.520952 523.083732 
L 483.74415 522.152319 
L 484.967349 520.881087 
L 486.190547 519.311143 
L 487.821478 516.821888 
L 489.860142 513.198951 
L 492.306539 508.310687 
L 495.976134 500.360272 
L 503.315325 484.336788 
L 506.577187 477.76531 
L 509.839049 471.715734 
L 512.693179 466.885102 
L 515.547308 462.488894 
L 518.401438 458.512584 
L 521.255568 454.93236 
L 524.109697 451.720384 
L 526.963827 448.848508 
L 529.817956 446.290515 
L 532.672086 444.023062 
L 535.526215 442.025601 
L 538.380345 440.279629 
L 541.234475 438.767641 
L 544.496337 437.30372 
L 547.758199 436.095409 
L 551.020062 435.114081 
L 554.689657 434.244474 
L 558.766985 433.52 
L 563.252046 432.954349 
L 568.552572 432.514674 
L 575.48403 432.184999 
L 584.861884 431.981299 
L 601.578928 431.879569 
L 663.146581 431.859952 
L 680.679091 431.859934 
L 680.679091 431.859934 
" clip-path="url(#pab55f60412)" style="fill: none; stroke: #008000; stroke-width: 1.5; stroke-linecap: square"/>
   </g>
   <g id="line2d_33">
    <path d="M 110.260909 431.859932 
L 680.679091 431.859932 
L 680.679091 431.859932 
" clip-path="url(#pab55f60412)" style="fill: none; stroke-dasharray: 5.55,2.4; stroke-dashoffset: 0; stroke: #ffa500; stroke-width: 1.5"/>
   </g>
   <g id="patch_9">
    <path d="M 81.74 534.04 
L 81.74 308.04 
" style="fill: none; stroke: #000000; stroke-width: 0.8; stroke-linejoin: miter; stroke-linecap: square"/>
   </g>
   <g id="patch_10">
    <path d="M 709.2 534.04 
L 709.2 308.04 
" style="fill: none; stroke: #000000; stroke-width: 0.8; stroke-linejoin: miter; stroke-linecap: square"/>
   </g>
   <g id="patch_11">
    <path d="M 81.74 534.04 
L 709.2 534.04 
" style="fill: none; stroke: #000000; stroke-width: 0.8; stroke-linejoin: miter; stroke-linecap: square"/>
   </g>
   <g id="patch_12">
    <path d="M 81.74 308.04 
L 709.2 308.04 
" style="fill: none; stroke: #000000; stroke-width: 0.8; stroke-linejoin: miter; stroke-linecap: square"/>
   </g>
   <g id="text_35">
    <!-- PDAC - Capacitance -->
    <g transform="translate(336.02875 302.04) scale(0.12 -0.12)">
     <use xlink:href="#DejaVuSans-50"/>
     <use xlink:href="#DejaVuSans-44" x="60.302734"/>
     <use xlink:href="#DejaVuSans-41" x="135.554688"/>
     <use xlink:href="#DejaVuSans-43" x="202.212891"/>
     <use xlink:href="#DejaVuSans-20" x="272.037109"/>
     <use xlink:href="#DejaVuSans-2d" x="303.824219"/>
     <use xlink:href="#DejaVuSans-20" x="339.908203"/>
     <use xlink:href="#DejaVuSans-43" x="371.695312"/>
     <use xlink:href="#DejaVuSans-61" x="441.519531"/>
     <use xlink:href="#DejaVuSans-70" x="502.798828"/>
     <use xlink:href="#DejaVuSans-61" x="566.275391"/>
     <use xlink:href="#DejaVuSans-63" x="627.554688"/>
     <use xlink:href="#DejaVuSans-69" x="682.535156"/>
     <use xlink:href="#DejaVuSans-74" x="710.318359"/>
     <use xlink:href="#DejaVuSans-61" x="749.527344"/>
     <use xlink:href="#DejaVuSans-6e" x="810.806641"/>
     <use xlink:href="#DejaVuSans-63" x="874.185547"/>
     <use xlink:href="#DejaVuSans-65" x="929.166016"/>
    </g>
   </g>
   <g id="PathCollection_3">
    <defs>
     <path id="C1_0_3a914b5d74" d="M 0 7.071068 
C 1.875269 7.071068 3.673985 6.326016 5 5 
C 6.326016 3.673985 7.071068 1.875269 7.071068 -0 
C 7.071068 -1.875269 6.326016 -3.673985 5 -5 
C 3.673985 -6.326016 1.875269 -7.071068 0 -7.071068 
C -1.875269 -7.071068 -3.673985 -6.326016 -5 -5 
C -6.326016 -3.673985 -7.071068 -1.875269 -7.071068 0 
C -7.071068 1.875269 -6.326016 3.673985 -5 5 
C -3.673985 6.326016 -1.875269 7.071068 0 7.071068 
z
"/>
    </defs>
    <g clip-path="url(#pab55f60412)">
     <use xlink:href="#C1_0_3a914b5d74" x="245.220465" y="432.279782" style="fill: none; stroke: #ff0000"/>
    </g>
    <g clip-path="url(#pab55f60412)">
     <use xlink:href="#C1_0_3a914b5d74" x="458.464717" y="431.458481" style="fill: none; stroke: #ff0000"/>
    </g>
   </g>
   <g id="PathCollection_4">
    <g clip-path="url(#pab55f60412)">
     <use xlink:href="#m4139992d50" x="436.447146" y="318.312727" style="fill: #ff0000; stroke: #ff0000"/>
     <use xlink:href="#m4139992d50" x="480.482288" y="523.767273" style="fill: #ff0000; stroke: #ff0000"/>
    </g>
   </g>
   <g id="legend_2">
    <g id="patch_13">
     <path d="M 572.615625 330.718125 
L 702.2 330.718125 
Q 704.2 330.718125 704.2 328.718125 
L 704.2 315.04 
Q 704.2 313.04 702.2 313.04 
L 572.615625 313.04 
Q 570.615625 313.04 570.615625 315.04 
L 570.615625 328.718125 
Q 570.615625 330.718125 572.615625 330.718125 
z
" style="fill: #ffffff; opacity: 0.8; stroke: #cccccc; stroke-linejoin: miter"/>
    </g>
    <g id="line2d_34">
     <path d="M 574.615625 321.138438 
L 584.615625 321.138438 
L 594.615625 321.138438 
" style="fill: none; stroke: #008000; stroke-width: 1.5; stroke-linecap: square"/>
    </g>
    <g id="text_36">
     <!-- PDAC - capacitance -->
     <g transform="translate(602.615625 324.638438) scale(0.1 -0.1)">
      <use xlink:href="#DejaVuSans-50"/>
      <use xlink:href="#DejaVuSans-44" x="60.302734"/>
      <use xlink:href="#DejaVuSans-41" x="135.554688"/>
      <use xlink:href="#DejaVuSans-43" x="202.212891"/>
      <use xlink:href="#DejaVuSans-20" x="272.037109"/>
      <use xlink:href="#DejaVuSans-2d" x="303.824219"/>
      <use xlink:href="#DejaVuSans-20" x="339.908203"/>
      <use xlink:href="#DejaVuSans-63" x="371.695312"/>
      <use xlink:href="#DejaVuSans-61" x="426.675781"/>
      <use xlink:href="#DejaVuSans-70" x="487.955078"/>
      <use xlink:href="#DejaVuSans-61" x="551.431641"/>
      <use xlink:href="#DejaVuSans-63" x="612.710938"/>
      <use xlink:href="#DejaVuSans-69" x="667.691406"/>
      <use xlink:href="#DejaVuSans-74" x="695.474609"/>
      <use xlink:href="#DejaVuSans-61" x="734.683594"/>
      <use xlink:href="#DejaVuSans-6e" x="795.962891"/>
      <use xlink:href="#DejaVuSans-63" x="859.341797"/>
      <use xlink:href="#DejaVuSans-65" x="914.322266"/>
     </g>
    </g>
   </g>
  </g>
 </g>
 <defs>
  <clipPath id="p2203dbb30e">
   <rect x="81.74" y="25.44" width="627.46" height="226"/>
  </clipPath>
  <clipPath id="pab55f60412">
   <rect x="81.74" y="308.04" width="627.46" height="226"/>
  </clipPath>
 </defs>
</svg>
